{"glyphs":{"0":{"ha":634,"x_min":0,"x_max":538,"o":"m 234 808 q 122 723 122 797 l 122 179 q 179 98 122 128 q 234 83 201 87 l 234 -16 q 0 127 0 -5 l 0 758 q 139 902 0 869 q 234 913 177 911 l 234 808 m 288 81 q 417 179 417 85 l 417 723 q 288 810 417 807 l 288 914 q 446 885 381 913 q 538 758 538 845 l 538 127 q 288 -17 538 -14 l 288 81 z "},"1":{"ha":354,"x_min":0,"x_max":260,"o":"m 0 828 q 104 851 68 826 q 139 909 141 876 l 260 909 l 260 0 l 139 0 l 139 729 l 0 729 l 0 828 z "},"2":{"ha":698,"x_min":0,"x_max":602,"o":"m 480 619 l 480 729 q 301 822 480 822 q 127 729 137 822 l 127 613 l 0 613 l 0 764 q 301 914 0 914 q 602 764 602 914 l 602 584 q 301 382 602 457 q 127 266 127 339 l 127 98 l 602 98 l 602 0 l 0 0 l 0 324 q 301 492 0 427 q 480 619 480 531 z "},"3":{"ha":692,"x_min":0,"x_max":596,"o":"m 301 804 q 122 723 122 804 l 122 613 l 0 613 l 0 752 q 75 868 0 827 q 301 909 149 909 q 521 868 443 909 q 596 752 596 829 l 596 579 q 567 509 596 540 q 486 475 534 475 q 596 353 580 475 l 596 145 q 301 -12 596 -14 q 0 145 0 -9 l 0 289 l 122 289 l 122 174 q 301 87 122 87 q 463 174 463 87 l 463 347 q 382 422 463 422 l 179 422 l 179 538 l 376 538 q 463 625 463 549 l 463 723 q 301 804 463 804 z "},"4":{"ha":731,"x_min":0,"x_max":637,"o":"m 432 903 l 544 903 l 544 272 l 637 272 l 637 174 l 544 174 l 544 0 l 432 0 l 432 903 m 386 642 l 127 272 l 386 272 l 386 174 l 0 174 l 0 272 l 386 848 l 386 642 z "},"5":{"ha":692,"x_min":0,"x_max":596,"o":"m 345 670 q 510 631 439 663 q 596 527 596 592 l 596 139 q 345 -10 596 0 l 345 89 q 475 174 475 98 l 475 475 q 422 550 475 524 q 345 571 391 566 l 345 670 m 291 -12 q 0 139 0 -9 l 0 278 l 122 278 l 122 168 q 291 87 130 89 l 291 -12 m 291 573 q 122 463 122 569 l 122 405 l 0 405 l 0 903 l 584 903 l 584 799 l 122 799 l 122 567 q 291 671 122 671 l 291 573 z "},"6":{"ha":705,"x_min":0,"x_max":613,"o":"m 332 914 q 532 874 462 910 q 613 758 613 832 l 613 625 l 480 625 l 480 723 q 332 810 468 802 l 332 914 m 332 93 q 486 174 473 100 l 486 359 q 332 451 486 444 l 332 543 q 534 503 460 541 q 613 388 613 462 l 613 139 q 532 29 613 69 q 332 -11 457 -8 l 332 93 m 280 450 q 173 416 212 446 q 127 313 127 381 l 127 179 q 280 93 127 98 l 280 -11 q 0 145 0 -5 l 0 752 q 75 874 0 832 q 280 914 144 912 l 280 810 q 127 723 142 804 l 127 469 q 280 543 165 536 l 280 450 z "},"7":{"ha":640,"x_min":0,"x_max":544,"o":"m 0 903 l 544 903 l 544 787 q 324 509 383 636 q 197 0 270 394 l 69 0 q 191 469 119 267 q 457 799 257 653 l 0 799 l 0 903 z "},"8":{"ha":692,"x_min":0,"x_max":596,"o":"m 265 809 q 122 723 122 801 l 122 613 q 163 544 122 565 q 265 522 196 527 l 265 416 q 122 318 122 406 l 122 174 q 265 94 122 101 l 265 -5 q 0 116 0 2 l 0 365 q 104 475 0 449 q 0 584 0 500 l 0 764 q 265 908 0 900 l 265 809 m 311 521 q 475 613 475 520 l 475 723 q 311 810 475 807 l 311 909 q 596 764 596 906 l 596 579 q 486 475 596 508 q 596 347 584 436 l 596 116 q 311 -6 596 -3 l 311 93 q 475 179 475 95 l 475 330 q 311 417 475 414 l 311 521 z "},"9":{"ha":711,"x_min":0,"x_max":613,"o":"m 265 -10 q 80 30 145 -5 q 6 145 6 69 l 6 278 l 127 278 l 127 174 q 265 94 127 104 l 265 -10 m 265 803 q 127 723 127 793 l 127 567 q 174 486 127 516 q 265 459 205 465 l 265 359 q 81 394 144 363 q 0 509 0 432 l 0 764 q 81 874 0 836 q 265 908 145 903 l 265 803 m 319 457 q 486 567 486 459 l 486 723 q 319 804 486 803 l 319 909 q 613 752 613 906 l 613 145 q 319 -12 613 -10 l 319 93 q 480 174 480 94 l 480 434 q 428 376 480 398 q 319 359 389 360 l 319 457 z "}," ":{"ha":289,"x_min":0,"x_max":0,"o":""},"!":{"ha":224,"x_min":0,"x_max":127,"o":"m 110 197 l 17 197 l 0 909 l 127 909 l 110 197 m 0 64 q 64 127 0 127 q 127 64 127 127 q 64 0 127 0 q 0 64 0 0 z "},"\"":{"ha":406,"x_min":0,"x_max":313,"o":"m 179 880 q 249 943 179 943 q 313 880 313 943 q 266 718 303 792 l 226 718 q 179 880 196 786 m 0 880 q 64 943 0 943 q 127 880 127 943 q 87 718 116 775 l 46 718 q 0 880 16 787 z "},"#":{"ha":796,"x_min":0,"x_max":700,"o":"m 394 278 l 475 637 l 363 637 l 382 718 l 492 718 l 532 909 l 666 909 l 619 718 l 700 718 l 700 637 l 602 637 l 527 278 l 625 278 l 625 203 l 509 203 l 463 0 l 330 0 l 376 203 l 261 203 l 279 278 l 394 278 m 41 0 l 87 203 l 0 203 l 0 278 l 104 278 l 179 637 l 81 637 l 81 718 l 197 718 l 243 909 l 370 909 l 354 842 l 324 718 l 326 718 l 160 0 l 41 0 m 370 909 l 354 842 l 370 909 l 370 909 z "},"$":{"ha":692,"x_min":0,"x_max":596,"o":"m 336 179 q 469 266 469 185 l 469 307 q 336 417 469 378 l 336 179 m 266 787 q 116 700 129 784 l 116 654 q 266 544 116 586 l 266 787 m 266 938 l 336 938 l 336 891 q 596 735 596 881 l 596 654 l 469 654 l 469 700 q 336 787 469 784 l 336 527 q 596 370 596 464 l 596 226 q 336 81 596 91 l 336 0 l 266 0 l 266 81 q 0 272 0 93 l 0 324 l 116 324 l 116 266 q 266 174 116 175 l 266 434 q 0 625 14 502 l 0 735 q 266 891 0 881 l 266 938 z "},"%":{"ha":887,"x_min":0,"x_max":793,"o":"m 160 837 q 122 828 138 834 q 87 781 87 813 l 87 596 q 160 534 87 543 l 160 464 q 69 480 107 467 q 0 561 0 505 l 0 799 q 69 891 0 859 q 160 913 108 909 l 160 837 m 196 532 q 284 596 284 534 l 284 775 q 196 839 284 837 l 196 914 q 301 891 257 914 q 365 799 365 859 l 365 567 q 196 463 365 464 l 196 532 m 586 356 q 554 347 569 353 q 515 301 515 331 l 515 122 q 586 54 515 64 l 586 -10 q 498 6 532 -8 q 428 93 428 33 l 428 324 q 586 428 428 419 l 586 356 m 617 52 l 619 52 q 683 69 655 52 q 718 122 718 91 l 718 289 q 619 359 718 359 l 617 359 l 617 428 l 619 428 q 793 324 793 428 l 793 93 q 619 -12 793 -12 l 617 -12 l 617 52 m 671 903 l 787 903 l 139 0 l 17 0 l 671 903 z "},"&":{"ha":867,"x_min":0,"x_max":775,"o":"m 149 469 q 139 451 143 463 l 139 255 q 208 139 139 181 q 434 87 286 91 q 495 97 472 90 l 565 23 q 538 6 553 14 q 434 -12 521 -1 q 0 226 0 -14 l 0 463 q 68 557 0 534 l 149 469 m 46 706 l 46 752 q 127 868 46 829 q 353 903 205 906 q 642 752 642 896 l 642 625 l 521 625 l 521 729 q 353 804 505 811 l 313 804 q 174 729 174 804 l 174 723 q 214 625 174 670 l 619 174 q 631 255 637 203 l 631 359 l 752 359 l 752 226 q 694 93 752 141 l 775 0 l 644 0 l 51 663 q 46 706 46 683 z "},"'":{"ha":218,"x_min":0,"x_max":124,"o":"m 0 839 q 58 903 0 903 q 122 839 120 903 q 93 700 124 757 q 0 637 57 635 l 0 666 q 52 700 28 665 q 81 775 79 741 q 23 793 46 775 q 0 839 0 811 z "},"(":{"ha":406,"x_min":-6,"x_max":313,"o":"m 313 1001 l 313 903 q 127 498 127 854 q 127 451 127 451 q 313 0 139 68 l 313 -98 q 0 451 6 -28 q 313 1001 -6 954 z "},")":{"ha":413,"x_min":0,"x_max":326,"o":"m 0 1001 q 318 434 326 953 q 0 -98 312 -27 l 0 -6 q 191 434 179 64 q 191 486 191 434 q 0 903 191 852 l 0 1001 z "},"*":{"ha":462,"x_min":6,"x_max":370,"o":"m 168 949 l 208 949 l 243 833 l 359 833 l 370 799 l 272 735 l 307 631 l 272 602 l 191 677 l 104 602 l 69 631 l 104 735 l 6 799 l 17 833 l 139 833 l 168 949 z "},"+":{"ha":634,"x_min":0,"x_max":538,"o":"m 226 174 l 226 405 l 0 405 l 0 498 l 226 498 l 226 718 l 313 718 l 313 498 l 538 498 l 538 405 l 313 405 l 313 174 l 226 174 z "},",":{"ha":218,"x_min":0,"x_max":126,"o":"m 0 64 q 64 122 0 122 q 122 64 119 122 q 98 -69 126 -19 q 0 -139 62 -137 l 0 -110 q 46 -69 25 -112 q 64 0 62 -39 q 0 64 0 0 z "},"-":{"ha":575,"x_min":0,"x_max":480,"o":"m 480 388 l 0 388 l 0 498 l 480 498 l 480 388 z "},"‐":{"ha":575,"x_min":0,"x_max":480,"o":"m 480 388 l 0 388 l 0 498 l 480 498 l 480 388 z "},".":{"ha":211,"x_min":0,"x_max":116,"o":"m 0 64 q 58 122 0 122 q 116 64 116 122 q 58 0 116 0 q 0 64 0 0 z "},"/":{"ha":672,"x_min":0,"x_max":642,"o":"m 642 926 l 139 -35 l 0 -35 l 521 926 l 642 926 z "},":":{"ha":211,"x_min":0,"x_max":116,"o":"m 0 434 q 58 498 0 498 q 116 434 116 498 q 58 370 116 370 q 0 434 0 370 m 0 58 q 58 122 0 122 q 116 58 116 122 q 58 0 116 0 q 0 58 0 0 z "},";":{"ha":218,"x_min":0,"x_max":123,"o":"m 0 434 q 58 498 0 498 q 122 434 122 498 q 58 370 122 370 q 0 434 0 370 m 0 58 q 58 122 0 122 q 122 58 120 122 q 93 -81 123 -25 q 0 -145 57 -147 l 0 -122 q 52 -75 23 -122 q 76 -35 69 -47 q 87 0 86 -15 q 0 58 0 0 z "},"<":{"ha":601,"x_min":0,"x_max":509,"o":"m 422 122 l 0 451 l 422 775 l 509 723 l 150 451 l 509 179 l 422 122 z "},"=":{"ha":614,"x_min":0,"x_max":521,"o":"m 521 260 l 0 260 l 0 370 l 521 370 l 521 260 m 521 463 l 0 463 l 0 573 l 521 573 l 521 463 z "},">":{"ha":601,"x_min":0,"x_max":509,"o":"m 87 122 l 0 179 l 359 451 l 0 723 l 87 775 l 509 451 l 87 122 z "},"?":{"ha":692,"x_min":0,"x_max":596,"o":"m 475 619 l 475 729 q 289 822 461 822 q 116 729 116 822 l 116 613 l 0 613 l 0 764 q 289 914 0 914 q 596 764 596 914 l 596 584 q 417 411 596 459 q 350 371 365 397 q 336 307 336 348 l 336 278 l 208 278 l 208 370 q 417 521 208 465 q 475 602 475 536 q 475 619 475 619 m 208 64 q 272 127 208 127 q 330 64 330 127 q 272 0 330 0 q 208 64 208 0 z "},"@":{"ha":835,"x_min":0,"x_max":735,"o":"m 326 407 q 272 365 272 398 l 272 336 q 326 293 272 302 l 326 187 q 192 225 229 193 q 145 376 145 265 q 226 486 145 459 q 326 503 244 492 l 326 407 m 376 289 l 376 289 q 463 394 463 289 l 463 440 q 376 411 452 411 l 376 411 l 376 509 l 376 509 q 457 561 457 519 l 457 573 q 376 637 457 637 l 376 637 l 376 747 l 376 747 q 579 579 579 747 l 579 307 q 602 272 579 274 q 619 307 619 271 l 619 677 q 376 804 619 804 l 376 804 l 376 909 l 376 909 q 735 706 735 909 l 735 359 q 619 191 735 191 q 463 266 464 191 q 444 203 463 221 q 376 185 425 185 l 376 185 l 376 289 m 326 -8 q 168 17 233 -2 q 0 191 0 67 l 0 706 q 139 873 0 822 q 326 907 218 902 l 326 803 q 122 671 122 791 l 122 243 q 326 93 122 116 l 326 -8 m 326 630 q 272 556 272 614 l 272 538 l 150 538 l 150 602 q 226 718 150 681 q 326 744 268 738 l 326 630 m 376 89 q 434 87 403 87 q 556 93 536 87 q 619 174 619 112 l 735 174 l 735 122 q 613 12 735 47 q 434 -12 535 -12 q 376 -10 404 -12 l 376 89 z "},"A":{"ha":796,"x_min":0,"x_max":764,"o":"m 0 0 l 318 909 l 443 909 l 137 0 l 0 0 m 498 347 l 410 619 l 481 823 l 764 0 l 625 0 l 538 249 l 282 249 l 316 347 l 498 347 z "},"B":{"ha":692,"x_min":0,"x_max":596,"o":"m 111 0 l 0 0 l 0 909 l 111 909 l 111 0 m 175 515 l 382 515 q 475 613 475 515 l 475 706 q 446 781 475 755 q 359 810 414 810 l 175 810 l 175 909 l 394 909 q 545 867 493 909 q 596 752 596 826 l 596 579 q 475 463 596 464 q 596 347 596 463 l 596 127 q 480 0 596 13 l 175 0 l 175 98 l 376 98 q 475 174 475 98 l 475 347 q 382 417 475 417 l 175 417 l 175 515 z "},"C":{"ha":692,"x_min":0,"x_max":596,"o":"m 596 278 l 596 145 q 301 -6 596 -6 q 0 139 0 -6 l 0 758 q 301 909 0 909 q 596 758 596 909 l 596 625 l 475 625 l 475 723 q 301 810 475 810 q 122 723 122 810 l 122 191 q 301 93 122 93 q 428 110 389 93 q 475 174 475 131 l 475 278 l 596 278 z "},"D":{"ha":692,"x_min":0,"x_max":596,"o":"m 111 0 l 0 0 l 0 909 l 111 909 l 111 0 m 167 98 l 301 98 q 475 191 475 98 l 475 718 q 405 793 475 766 q 301 810 361 810 l 167 810 l 167 909 l 347 909 q 509 880 444 909 q 596 752 596 841 l 596 156 q 405 0 596 0 l 167 0 l 167 98 z "},"E":{"ha":588,"x_min":0,"x_max":492,"o":"m 492 810 l 122 810 l 122 515 l 434 515 l 434 417 l 122 417 l 122 98 l 492 98 l 492 0 l 0 0 l 0 909 l 492 909 l 492 810 z "},"F":{"ha":588,"x_min":0,"x_max":492,"o":"m 492 810 l 122 810 l 122 492 l 422 492 l 422 394 l 122 394 l 122 0 l 0 0 l 0 909 l 492 909 l 492 810 z "},"G":{"ha":692,"x_min":0,"x_max":596,"o":"m 596 475 l 596 0 l 538 0 l 498 93 q 301 -12 452 -14 q 0 127 12 -6 l 0 764 q 75 880 0 840 q 301 926 163 926 q 596 764 596 926 l 596 631 l 475 631 l 475 735 q 301 822 475 822 q 122 729 122 822 l 122 191 q 301 87 122 87 q 475 203 475 87 l 475 376 l 226 376 l 226 475 l 596 475 z "},"H":{"ha":646,"x_min":0,"x_max":556,"o":"m 0 909 l 122 909 l 122 498 l 428 498 l 428 909 l 556 909 l 556 0 l 428 0 l 428 405 l 122 405 l 122 0 l 0 0 l 0 909 z "},"I":{"ha":315,"x_min":0,"x_max":220,"o":"m 220 0 l 0 0 l 0 98 l 46 98 l 46 810 l 0 810 l 0 909 l 220 909 l 220 810 l 174 810 l 174 98 l 220 98 l 220 0 z "},"J":{"ha":620,"x_min":0,"x_max":527,"o":"m 527 909 l 527 168 q 457 40 527 92 q 260 -12 387 -12 q 0 162 0 -12 l 0 272 l 122 272 l 122 214 q 260 87 122 88 q 365 116 332 86 q 394 197 394 141 l 394 909 l 527 909 z "},"K":{"ha":666,"x_min":0,"x_max":573,"o":"m 122 0 l 0 0 l 0 909 l 122 909 l 122 527 l 405 909 l 556 909 l 289 538 l 573 0 l 428 0 l 208 434 l 122 318 l 122 0 z "},"L":{"ha":588,"x_min":0,"x_max":492,"o":"m 492 0 l 0 0 l 0 909 l 122 909 l 122 98 l 492 98 l 492 0 z "},"M":{"ha":926,"x_min":0,"x_max":833,"o":"m 833 909 l 833 0 l 700 0 l 700 625 l 480 0 l 353 0 l 127 625 l 127 0 l 0 0 l 0 909 l 191 909 l 417 191 l 642 909 l 833 909 z "},"N":{"ha":646,"x_min":0,"x_max":556,"o":"m 0 909 l 150 909 l 422 249 l 422 909 l 556 909 l 556 0 l 394 0 l 122 654 l 122 0 l 0 0 l 0 909 z "},"O":{"ha":692,"x_min":0,"x_max":596,"o":"m 267 821 q 122 735 122 813 l 122 179 q 267 88 122 96 l 267 -11 q 0 127 0 -3 l 0 775 q 267 925 0 917 l 267 821 m 324 87 q 475 191 475 94 l 475 735 q 324 821 475 816 l 324 926 q 596 775 596 920 l 596 139 q 324 -12 596 -6 l 324 87 z "},"P":{"ha":692,"x_min":0,"x_max":596,"o":"m 183 463 l 289 463 q 475 538 475 463 l 475 706 q 405 793 475 764 q 289 810 362 810 l 183 810 l 183 909 l 289 909 q 480 880 396 909 q 596 752 596 840 l 596 509 q 446 376 596 403 q 183 365 389 366 l 183 463 m 113 0 l 0 0 l 0 909 l 113 909 l 113 0 z "},"Q":{"ha":692,"x_min":0,"x_max":596,"o":"m 313 260 l 451 122 q 453 123 452 122 l 594 -24 l 514 -47 l 223 234 l 313 260 m 398 -8 q 301 -12 356 -12 q 0 139 0 -12 l 0 764 q 110 897 0 859 q 273 925 182 922 l 273 821 q 116 729 116 814 l 116 191 q 289 87 116 87 q 302 87 295 87 l 398 -8 m 480 168 l 480 729 q 311 822 480 819 l 311 926 q 596 764 596 923 l 596 145 q 568 71 596 103 l 477 155 q 480 168 480 161 z "},"R":{"ha":725,"x_min":0,"x_max":631,"o":"m 152 515 l 382 515 q 469 619 469 515 l 469 723 q 359 810 469 810 l 152 810 l 152 909 l 394 909 q 596 758 596 909 l 596 579 q 475 463 596 464 q 596 353 596 463 l 596 52 q 631 0 596 1 l 521 0 q 469 52 469 0 l 469 318 q 376 417 469 417 l 152 417 l 152 515 m 105 0 l 0 0 l 0 909 l 105 909 l 105 0 z "},"S":{"ha":698,"x_min":0,"x_max":602,"o":"m 122 648 q 301 527 122 565 q 481 478 429 499 q 602 359 602 431 l 602 127 q 301 -12 602 -13 q 0 174 0 -10 l 0 278 l 122 278 l 122 168 q 301 87 122 85 q 475 168 475 89 l 475 301 q 301 417 475 375 q 0 619 0 488 l 0 764 q 75 880 0 840 q 301 926 163 926 q 527 880 437 926 q 602 764 602 841 l 602 613 l 480 613 l 480 735 q 301 822 480 822 q 122 735 122 822 l 122 648 z "},"T":{"ha":711,"x_min":0,"x_max":625,"o":"m 376 0 l 249 0 l 249 810 l 0 810 l 0 909 l 625 909 l 625 810 l 376 810 l 376 0 z "},"U":{"ha":692,"x_min":0,"x_max":596,"o":"m 596 909 l 596 139 q 301 -12 596 -12 q 0 139 0 -12 l 0 909 l 127 909 l 127 179 q 174 110 127 132 q 301 93 208 93 q 469 179 469 91 l 469 909 l 596 909 z "},"V":{"ha":861,"x_min":6,"x_max":775,"o":"m 775 909 l 451 0 l 318 0 l 6 909 l 156 909 l 382 191 l 625 909 l 775 909 z "},"W":{"ha":1127,"x_min":0,"x_max":1042,"o":"m 584 909 l 718 191 l 909 909 l 1042 909 l 758 0 l 642 0 l 521 596 l 388 0 l 272 0 l 0 909 l 127 909 l 324 191 l 457 909 l 584 909 z "},"X":{"ha":861,"x_min":0,"x_max":764,"o":"m 764 909 l 463 457 l 764 0 l 619 0 l 382 370 l 145 0 l 0 0 l 307 451 l 0 909 l 145 909 l 382 532 l 619 909 l 764 909 z "},"Y":{"ha":855,"x_min":0,"x_max":764,"o":"m 764 903 l 451 324 l 451 0 l 318 0 l 318 324 l 0 903 l 145 903 l 382 457 l 619 903 l 764 903 z "},"Z":{"ha":640,"x_min":0,"x_max":544,"o":"m 544 810 q 127 104 473 692 l 544 104 l 544 0 l 0 0 l 0 104 l 417 810 l 0 810 l 0 909 l 544 909 l 544 810 z "},"[":{"ha":334,"x_min":0,"x_max":243,"o":"m 243 903 l 122 903 l 122 0 l 243 0 l 243 -98 l 0 -98 l 0 1001 l 243 1001 l 243 903 z "},"\\":{"ha":666,"x_min":0,"x_max":637,"o":"m 0 926 l 122 926 l 637 -12 l 509 -12 l 0 926 z "},"]":{"ha":334,"x_min":0,"x_max":243,"o":"m 0 903 l 0 1001 l 243 1001 l 243 -98 l 0 -98 l 0 0 l 116 0 l 116 903 l 0 903 z "},"^":{"ha":458,"x_min":0,"x_max":365,"o":"m 197 897 l 365 637 l 307 637 l 179 741 l 58 637 l 0 637 l 174 897 l 197 897 z "},"_":{"ha":783,"x_min":-23,"x_max":666,"o":"m 666 -139 l -23 -139 l -23 -87 l 666 -87 l 666 -139 z "},"`":{"ha":218,"x_min":-2,"x_max":122,"o":"m 122 839 q 98 793 122 809 q 41 775 73 775 q 69 712 42 742 q 122 677 96 682 l 122 666 q 29 723 61 675 q 0 839 -2 770 q 64 903 2 903 q 122 839 122 903 z "},"a":{"ha":646,"x_min":0,"x_max":556,"o":"m 216 541 q 127 475 127 528 l 127 422 l 0 422 l 0 515 q 216 646 0 633 l 216 541 m 216 266 q 122 191 122 258 l 122 156 q 216 93 122 97 l 216 -11 q 64 23 115 -8 q 0 127 0 61 l 0 208 q 63 324 0 283 q 216 364 119 360 l 216 266 m 257 94 q 376 203 376 103 l 376 313 q 257 267 323 270 l 257 365 q 370 428 370 368 l 370 480 q 260 544 370 547 l 257 544 l 257 648 l 260 648 q 492 486 492 652 l 492 75 q 556 0 492 35 l 422 0 q 376 69 376 17 q 337 12 376 36 q 257 -11 302 -9 l 257 94 z "},"b":{"ha":660,"x_min":0,"x_max":567,"o":"m 116 0 l 0 0 l 0 926 l 116 926 l 116 0 m 167 108 q 301 93 203 93 q 440 179 424 93 l 440 463 q 301 538 440 536 q 167 513 209 540 l 167 609 q 301 637 216 637 q 567 492 567 637 l 567 139 q 492 23 567 63 q 301 -12 429 -10 q 167 13 212 -12 l 167 108 z "},"c":{"ha":640,"x_min":0,"x_max":544,"o":"m 544 208 l 544 145 q 480 29 544 67 q 278 -12 411 -13 q 75 29 148 -11 q 0 139 0 70 l 0 492 q 70 608 0 568 q 278 648 141 648 q 475 607 406 648 q 544 492 544 567 l 544 405 l 417 405 l 417 463 q 278 544 417 544 q 122 463 122 544 l 122 191 q 278 93 122 95 q 382 104 356 91 q 417 168 417 122 l 417 208 l 544 208 z "},"d":{"ha":666,"x_min":0,"x_max":573,"o":"m 394 512 q 255 544 347 546 q 122 463 122 542 l 122 174 q 255 93 122 95 q 394 113 347 91 l 394 16 q 255 -12 347 -12 q 69 23 133 -12 q 0 127 0 61 l 0 492 q 255 642 0 642 q 394 623 347 642 l 394 512 m 447 926 l 573 926 l 573 0 l 447 0 l 447 926 z "},"e":{"ha":601,"x_min":0,"x_max":521,"o":"m 288 88 q 388 174 388 97 l 388 203 l 521 203 l 521 139 q 428 12 521 52 q 288 -17 370 -13 l 288 88 m 288 376 l 388 376 l 388 480 q 288 560 388 552 l 288 653 q 521 515 521 646 l 521 272 l 288 272 l 288 376 m 226 560 q 127 480 127 550 l 127 376 l 226 376 l 226 272 l 127 272 l 127 174 q 226 89 127 99 l 226 -17 q 93 12 147 -12 q 0 139 0 53 l 0 515 q 98 631 0 593 q 226 653 149 650 l 226 560 z "},"f":{"ha":419,"x_min":0,"x_max":324,"o":"m 203 0 l 69 0 l 69 544 l 0 544 l 0 648 l 69 648 l 69 799 q 203 909 69 909 l 324 909 l 324 810 q 203 741 203 810 l 203 648 l 318 648 l 318 544 l 203 544 l 203 0 z "},"g":{"ha":660,"x_min":0,"x_max":573,"o":"m 257 554 q 179 532 216 550 q 127 469 127 508 l 127 191 q 257 99 127 106 l 257 1 q 81 41 150 5 q 0 156 0 83 l 0 509 q 257 653 0 647 l 257 554 m 306 99 q 411 127 385 102 q 440 231 440 156 l 440 463 q 399 532 429 514 q 306 555 367 553 l 306 653 q 405 631 380 651 q 440 556 428 613 l 440 648 l 573 648 l 573 -87 q 498 -185 573 -148 q 284 -220 428 -220 q 75 -185 144 -220 q 0 -87 0 -147 l 0 -23 l 127 -23 l 127 -52 q 284 -116 127 -116 q 405 -98 367 -116 q 440 -41 440 -83 l 440 81 q 388 23 407 35 q 306 1 356 4 l 306 99 z "},"h":{"ha":646,"x_min":0,"x_max":556,"o":"m 0 0 l 0 932 l 116 932 l 116 567 q 174 631 116 606 q 318 654 226 653 q 556 515 556 656 l 556 0 l 428 0 l 428 463 q 278 567 428 568 q 116 434 116 566 l 116 0 l 0 0 z "},"i":{"ha":244,"x_min":-3,"x_max":151,"o":"m 0 648 l 127 648 l 127 0 l 0 0 l 0 648 m 150 845 q 69 775 150 777 q 0 845 3 775 q 69 914 -3 914 q 127 897 108 915 q 150 845 151 876 z "},"j":{"ha":322,"x_min":0,"x_max":226,"o":"m 87 648 l 220 648 l 220 -110 q 87 -214 220 -214 l 0 -214 l 0 -122 q 87 -52 87 -124 l 87 648 m 226 845 q 156 775 225 776 q 87 845 90 775 q 156 914 84 914 q 209 897 191 915 q 226 845 226 878 z "},"k":{"ha":601,"x_min":0,"x_max":509,"o":"m 122 0 l 0 0 l 0 932 l 122 932 l 122 324 l 353 648 l 498 648 l 289 359 l 509 0 l 365 0 l 214 243 l 122 110 l 122 0 z "},"l":{"ha":224,"x_min":0,"x_max":127,"o":"m 127 0 l 0 0 l 0 926 l 127 926 l 127 0 z "},"m":{"ha":939,"x_min":0,"x_max":845,"o":"m 480 434 l 480 0 l 359 0 l 359 434 q 323 527 359 487 q 243 567 288 568 q 122 434 122 565 l 122 0 l 0 0 l 0 648 l 122 648 l 122 567 q 167 636 122 608 q 278 666 213 664 q 417 637 354 667 q 475 567 475 609 q 522 637 476 609 q 631 666 567 665 q 774 634 715 667 q 845 515 845 594 l 845 0 l 718 0 l 718 434 q 683 527 718 488 q 590 567 645 568 q 509 527 542 567 q 480 434 480 491 z "},"n":{"ha":646,"x_min":0,"x_max":556,"o":"m 0 0 l 0 648 l 122 648 l 122 567 q 200 639 122 613 q 318 654 243 653 q 556 515 556 656 l 556 0 l 428 0 l 428 463 q 278 567 428 568 q 122 434 122 566 l 122 0 l 0 0 z "},"o":{"ha":634,"x_min":0,"x_max":538,"o":"m 234 542 q 122 451 122 531 l 122 197 q 234 94 122 107 l 234 1 q 0 145 12 11 l 0 492 q 234 648 0 638 l 234 542 m 285 93 q 417 197 417 97 l 417 451 q 285 544 417 539 l 285 648 q 469 608 404 645 q 538 492 538 567 l 538 145 q 285 0 538 3 l 285 93 z "},"p":{"ha":660,"x_min":0,"x_max":567,"o":"m 118 -214 l 0 -214 l 0 648 l 118 648 l 118 -214 m 175 123 q 313 98 214 98 q 440 191 440 98 l 440 463 q 405 527 440 505 q 307 556 360 555 q 175 529 220 556 l 175 624 q 313 654 222 654 q 503 613 438 654 q 567 509 567 575 l 567 156 q 498 41 567 84 q 313 0 433 0 q 175 20 221 0 l 175 123 z "},"q":{"ha":679,"x_min":0,"x_max":584,"o":"m 460 648 l 584 648 l 584 -220 l 460 -220 l 460 648 m 404 535 q 260 556 355 556 q 122 469 137 554 l 122 191 q 255 98 122 101 q 404 128 354 97 l 404 24 q 388 17 396 20 q 255 0 337 0 q 64 40 128 0 q 0 156 0 80 l 0 509 q 255 654 13 651 q 399 631 351 655 q 404 628 402 630 l 404 535 z "},"r":{"ha":568,"x_min":0,"x_max":475,"o":"m 0 0 l 0 654 l 116 654 l 116 567 q 266 654 123 653 q 417 625 364 655 q 475 538 475 593 l 475 469 l 353 469 l 353 486 q 266 561 353 561 q 116 475 123 561 l 116 0 l 0 0 z "},"s":{"ha":640,"x_min":0,"x_max":544,"o":"m 122 434 q 278 376 130 383 q 544 260 544 365 l 544 139 q 480 23 544 60 q 278 -12 417 -13 q 75 41 148 -10 q 0 179 0 93 l 0 220 l 122 220 l 122 174 q 278 93 122 93 q 422 168 422 93 l 422 203 q 278 266 422 259 q 0 405 0 279 l 0 492 q 75 608 0 565 q 278 648 148 649 q 544 492 544 647 l 544 422 l 422 422 l 422 457 q 278 544 422 543 q 122 463 122 546 l 122 434 z "},"t":{"ha":419,"x_min":0,"x_max":318,"o":"m 203 862 l 203 648 l 313 648 l 313 556 l 197 556 l 197 162 q 318 93 197 91 l 318 0 l 197 0 q 64 104 64 0 l 64 556 l 0 556 l 0 648 l 64 648 l 64 862 l 203 862 z "},"u":{"ha":646,"x_min":0,"x_max":556,"o":"m 556 648 l 556 0 l 428 0 l 428 93 q 376 23 428 49 q 231 -6 320 -5 q 63 35 127 -7 q 0 145 0 76 l 0 648 l 122 648 l 122 197 q 272 93 122 93 q 428 220 428 93 l 428 648 l 556 648 z "},"v":{"ha":718,"x_min":0,"x_max":625,"o":"m 625 648 l 376 0 l 249 0 l 0 648 l 145 648 l 313 150 l 475 648 l 625 648 z "},"w":{"ha":796,"x_min":0,"x_max":700,"o":"m 411 648 l 509 260 l 590 648 l 700 648 l 561 0 l 463 0 l 353 422 l 255 0 l 150 0 l 0 648 l 110 648 l 208 266 l 301 648 l 411 648 z "},"x":{"ha":686,"x_min":0,"x_max":590,"o":"m 590 648 l 365 324 l 590 0 l 457 0 l 307 243 l 150 0 l 6 0 l 243 324 l 0 648 l 150 648 l 307 405 l 451 648 l 590 648 z "},"y":{"ha":725,"x_min":0,"x_max":631,"o":"m 631 648 l 359 -110 q 231 -220 339 -203 l 104 -220 l 104 -122 l 179 -122 q 243 -81 230 -122 l 266 0 l 0 648 l 150 648 l 336 150 l 480 648 l 631 648 z "},"z":{"ha":594,"x_min":0,"x_max":498,"o":"m 498 556 l 150 98 l 498 98 l 498 0 l 0 0 l 0 98 l 359 556 l 0 556 l 0 648 l 498 648 l 498 556 z "},"{":{"ha":373,"x_min":0,"x_max":278,"o":"m 255 1001 l 278 1001 l 278 897 l 255 897 q 214 851 214 897 l 214 584 q 197 509 214 535 q 139 480 177 480 q 197 440 175 480 q 214 353 214 406 l 214 52 q 255 0 214 3 l 278 0 l 278 -98 l 255 -98 q 81 46 81 -98 l 81 347 q 0 422 81 422 l 0 538 q 81 625 81 538 l 81 828 q 255 1001 81 1001 z "},"|":{"ha":159,"x_min":0,"x_max":64,"o":"m 64 1117 l 64 -220 l 0 -220 l 0 1117 l 64 1117 z "},"}":{"ha":380,"x_min":0,"x_max":284,"o":"m 17 1001 q 203 828 203 1001 l 203 625 q 284 538 203 538 l 284 422 q 203 347 203 422 l 203 46 q 17 -98 203 -98 l 0 -98 l 0 0 l 17 0 q 64 52 64 0 l 64 353 q 87 440 64 396 q 145 480 108 480 q 87 509 106 480 q 64 584 64 543 l 64 851 q 17 897 64 897 l 0 897 l 0 1001 l 17 1001 z "},"~":{"ha":815,"x_min":0,"x_max":723,"o":"m 422 480 q 509 417 422 416 q 596 492 596 418 l 596 521 l 723 521 l 723 492 q 509 313 723 311 q 313 434 313 314 q 214 515 313 515 q 116 428 116 515 l 116 417 l 0 417 l 0 434 q 214 613 0 613 q 422 480 422 613 z "}," ":{"ha":289,"x_min":0,"x_max":0,"o":""},"¡":{"ha":224,"x_min":0,"x_max":127,"o":"m 35 729 l 98 729 l 127 0 l 0 0 l 35 729 m 127 851 q 64 787 127 787 q 0 851 0 787 q 64 909 0 909 q 127 851 127 909 z "},"¢":{"ha":640,"x_min":0,"x_max":544,"o":"m 324 0 l 231 0 l 231 145 q 64 185 128 145 q 0 284 0 225 l 0 648 q 64 764 0 719 q 231 804 122 804 l 231 949 l 324 949 l 324 804 q 486 764 432 804 q 544 648 544 720 l 544 561 l 422 561 l 422 619 q 278 700 422 700 q 122 619 122 700 l 122 347 q 168 266 122 296 q 278 243 204 243 q 417 324 417 243 l 417 365 l 544 365 l 544 289 q 486 185 544 226 q 324 145 429 145 l 324 0 z "},"£":{"ha":789,"x_min":0,"x_max":694,"o":"m 480 405 l 220 405 l 220 255 q 156 98 220 98 l 694 98 l 694 0 l 0 0 l 0 98 q 75 133 50 98 q 98 220 98 165 l 98 405 l 6 405 l 6 515 l 98 515 l 98 758 q 394 909 98 909 q 694 758 694 909 l 694 625 l 573 625 l 573 723 q 394 810 573 810 q 220 723 220 810 l 220 515 l 480 515 l 480 405 z "},"¤":{"ha":770,"x_min":0,"x_max":677,"o":"m 475 313 l 475 556 q 330 637 475 637 q 174 556 174 637 l 174 313 q 220 237 174 267 q 330 208 264 208 q 475 313 475 208 m 0 735 l 81 804 l 156 723 q 330 747 215 747 q 515 718 455 747 l 584 799 l 677 718 l 579 654 q 596 590 596 623 l 596 266 q 584 214 596 241 l 666 162 l 573 87 l 515 150 q 330 116 441 116 q 145 150 222 116 l 93 81 l 0 156 l 81 203 q 52 266 52 240 l 52 596 q 87 677 52 638 l 0 735 z "},"¥":{"ha":855,"x_min":0,"x_max":758,"o":"m 162 284 l 318 284 l 318 324 l 0 903 l 145 903 l 388 457 l 613 903 l 758 903 l 451 324 l 451 284 l 613 284 l 613 255 l 451 255 l 451 208 l 613 208 l 613 174 l 451 174 l 451 0 l 318 0 l 318 174 l 162 174 l 162 208 l 318 208 l 318 255 l 162 255 l 162 284 z "},"¦":{"ha":159,"x_min":0,"x_max":64,"o":"m 64 353 l 64 -220 l 0 -220 l 0 353 l 64 353 m 64 1117 l 64 556 l 0 556 l 0 1117 l 64 1117 z "},"§":{"ha":698,"x_min":0,"x_max":596,"o":"m 243 480 q 122 370 122 457 l 122 353 q 301 231 122 274 q 359 214 317 227 q 469 318 469 236 l 469 347 q 301 463 469 423 q 243 480 285 468 m 122 694 q 301 579 122 617 q 596 411 596 514 l 596 284 q 573 191 596 233 q 515 150 548 146 q 573 104 546 146 q 596 35 596 68 l 596 -64 q 301 -214 596 -214 q 0 -58 0 -214 l 0 0 l 122 0 l 122 -23 q 301 -116 122 -116 q 469 -23 469 -116 l 469 -6 q 301 116 469 79 q 0 284 0 182 l 0 411 q 23 498 0 462 q 93 538 49 538 q 23 584 50 538 q 0 666 6 614 l 0 752 q 76 868 0 828 q 301 909 152 909 q 596 752 596 909 l 596 689 l 469 689 l 469 723 q 422 787 464 767 q 301 804 387 804 q 122 723 122 804 l 122 694 z "},"¨":{"ha":399,"x_min":0,"x_max":307,"o":"m 0 845 q 58 909 0 909 q 122 845 122 909 q 58 781 122 781 q 0 845 0 781 m 179 845 q 249 909 179 909 q 307 845 307 909 q 249 781 307 781 q 179 845 179 781 z "},"©":{"ha":835,"x_min":0,"x_max":741,"o":"m 625 243 l 625 671 q 556 770 625 732 q 370 804 494 803 q 116 671 116 806 l 116 243 q 199 120 116 158 q 370 93 257 94 q 625 243 625 89 m 741 700 l 741 226 q 370 -12 741 -12 q 98 52 190 -12 q 0 243 0 120 l 0 677 q 92 850 0 792 q 370 909 185 909 q 741 700 741 907 m 613 388 l 613 301 q 370 150 613 149 q 139 289 151 152 l 139 590 q 198 707 139 667 q 370 747 256 747 q 551 705 488 747 q 613 590 613 664 l 613 492 l 486 492 l 486 561 q 370 642 486 642 q 284 625 307 642 q 260 561 260 608 l 260 347 q 370 249 260 249 q 451 260 427 249 q 486 324 486 277 l 486 388 l 613 388 z "},"ª":{"ha":395,"x_min":-6,"x_max":330,"o":"m 214 584 q 145 544 214 544 q 23 613 23 544 l 23 654 q 145 735 23 735 q 208 764 208 735 l 208 793 q 156 822 208 823 q 93 787 93 820 l 93 764 l 23 764 l 23 804 q 156 874 23 872 q 272 793 272 876 l 272 590 q 301 550 269 567 l 237 550 q 214 584 214 558 m 214 706 q 145 683 184 682 q 87 642 87 683 l 87 631 q 139 596 87 596 q 214 654 214 596 l 214 706 m 330 422 l -6 422 l -6 498 l 330 498 l 330 422 z "},"«":{"ha":542,"x_min":0,"x_max":451,"o":"m 208 289 l 0 428 l 0 480 l 208 613 l 208 509 l 104 451 l 208 388 l 208 289 m 451 289 l 243 428 l 243 480 l 451 613 l 451 509 l 347 451 l 451 388 l 451 289 z "},"¬":{"ha":692,"x_min":0,"x_max":596,"o":"m 596 677 l 596 359 l 480 359 l 480 561 l 0 561 l 0 677 l 596 677 z "},"®":{"ha":835,"x_min":0,"x_max":741,"o":"m 741 700 l 741 226 q 370 -12 741 -12 q 98 52 190 -12 q 0 243 0 120 l 0 677 q 92 850 0 792 q 370 909 184 909 q 741 700 741 909 m 145 203 l 145 706 l 440 706 q 556 677 518 706 q 596 584 596 646 l 596 515 q 573 452 596 476 q 515 428 550 428 q 573 399 546 428 q 596 347 596 374 l 596 255 q 625 208 596 223 l 625 671 q 370 804 625 804 q 116 671 116 804 l 116 243 q 370 93 116 93 q 550 122 483 93 q 619 203 619 152 l 521 203 q 469 255 484 209 l 469 324 q 411 376 469 369 l 260 376 l 260 203 l 145 203 m 260 475 l 411 475 q 469 521 463 475 l 469 573 q 411 613 464 619 l 260 613 l 260 475 z "},"°":{"ha":458,"x_min":0,"x_max":365,"o":"m 365 625 q 191 527 365 527 q 0 625 0 527 l 0 793 q 69 880 0 851 q 191 903 125 903 q 301 880 251 903 q 365 793 365 850 l 365 625 m 284 666 l 284 764 q 191 833 284 833 q 122 816 158 833 q 87 764 87 799 l 87 666 q 191 590 87 590 q 284 666 284 590 z "},"±":{"ha":556,"x_min":-75,"x_max":463,"o":"m 150 324 l 150 556 l -75 556 l -75 648 l 150 648 l 150 868 l 231 868 l 231 648 l 463 648 l 463 556 l 231 556 l 231 324 l 150 324 m 451 174 l -75 174 l -75 278 l 451 278 l 451 174 z "},"²":{"ha":491,"x_min":0,"x_max":394,"o":"m 272 764 l 272 781 q 272 793 272 781 q 203 822 272 822 q 122 775 132 822 l 122 741 l 0 741 l 0 804 q 203 914 0 914 q 394 828 394 914 l 394 741 q 203 602 394 621 q 127 556 127 594 l 127 544 l 394 544 l 394 451 l 0 451 l 0 596 q 203 718 0 702 q 272 764 272 723 z "},"³":{"ha":510,"x_min":0,"x_max":417,"o":"m 208 810 q 122 764 122 809 l 122 747 l 0 747 l 0 787 q 52 874 0 841 q 208 909 107 909 q 417 804 417 909 l 417 758 q 394 701 417 731 q 336 671 372 671 q 394 642 370 671 q 417 584 417 613 l 417 538 q 208 434 417 434 q 79 454 134 434 q 0 544 0 483 l 0 590 l 122 590 l 122 567 q 208 527 122 527 q 301 573 301 527 l 301 602 q 266 642 296 634 l 197 642 l 197 706 l 260 706 q 301 747 301 714 l 301 781 q 208 810 301 811 z "},"´":{"ha":296,"x_min":0,"x_max":203,"o":"m 69 775 l 0 775 l 64 885 l 203 885 l 69 775 z "},"¶":{"ha":803,"x_min":0,"x_max":706,"o":"m 532 804 l 532 0 l 405 0 l 405 359 l 301 359 q 76 399 152 359 q 0 515 0 439 l 0 758 q 289 903 0 903 l 706 903 l 706 0 l 579 0 l 579 804 l 532 804 z "},"¸":{"ha":322,"x_min":0,"x_max":226,"o":"m 87 0 l 127 0 l 127 -46 q 168 -23 127 -23 q 226 -81 226 -23 l 226 -145 q 110 -203 226 -203 q 0 -145 0 -203 l 0 -116 l 46 -116 l 46 -127 q 110 -162 46 -162 q 174 -139 174 -162 l 174 -87 q 156 -58 174 -58 q 127 -87 127 -58 l 127 -104 l 87 -104 l 87 0 z "},"¹":{"ha":315,"x_min":0,"x_max":220,"o":"m 0 833 q 75 850 52 833 q 98 903 98 867 l 220 903 l 220 451 l 93 451 l 93 729 l 0 729 l 0 833 z "},"º":{"ha":381,"x_min":-17,"x_max":318,"o":"m 226 648 l 226 775 q 156 822 226 822 q 81 775 81 822 l 81 648 q 156 596 81 596 q 226 648 226 596 m 289 619 q 156 550 289 550 q 17 619 24 550 l 17 799 q 156 874 17 874 q 289 799 289 873 l 289 619 m 318 422 l -17 422 l -17 498 l 318 498 l 318 422 z "},"»":{"ha":549,"x_min":0,"x_max":457,"o":"m 243 289 l 243 388 l 347 451 l 243 509 l 243 613 l 457 480 l 457 428 l 243 289 m 0 289 l 0 388 l 104 451 l 0 509 l 0 613 l 214 480 l 214 428 l 0 289 z "},"¼":{"ha":787,"x_min":6,"x_max":735,"o":"m 735 943 l 127 -12 l 6 -12 l 625 943 l 735 943 m 75 885 q 128 897 109 885 q 145 932 146 910 l 203 932 l 203 475 l 145 475 l 145 839 l 75 839 l 75 885 m 694 139 l 694 87 l 648 87 l 648 0 l 584 0 l 584 87 l 376 87 l 376 139 l 584 451 l 648 451 l 648 139 l 694 139 m 440 139 l 584 139 l 584 347 l 440 139 z "},"½":{"ha":823,"x_min":29,"x_max":775,"o":"m 758 920 l 150 -35 l 29 -35 l 648 920 l 758 920 m 133 868 q 185 880 167 867 q 203 914 204 893 l 260 914 l 260 457 l 203 457 l 203 822 l 133 822 l 133 868 m 712 313 l 712 365 q 625 411 712 411 q 538 365 543 411 l 538 307 l 475 307 l 475 388 q 625 463 475 463 q 775 388 775 463 l 775 295 q 625 197 775 234 q 538 139 538 175 l 538 52 l 775 52 l 775 6 l 475 6 l 475 168 q 625 249 475 216 q 712 313 712 268 z "},"¾":{"ha":787,"x_min":17,"x_max":747,"o":"m 747 938 l 139 -23 l 17 -23 l 637 938 l 747 938 m 179 856 q 93 816 93 856 l 93 764 l 29 764 l 29 833 q 179 909 29 909 q 330 833 330 909 l 330 747 q 313 712 330 730 q 272 694 296 694 q 330 631 321 694 l 330 527 q 179 451 330 450 q 29 527 29 453 l 29 602 l 93 602 l 93 544 q 179 498 93 498 q 260 544 260 498 l 260 631 q 220 666 260 666 l 122 666 l 122 723 l 220 723 q 260 770 260 729 l 260 816 q 179 856 260 856 m 694 133 l 694 81 l 648 81 l 648 -6 l 584 -6 l 584 81 l 376 81 l 376 133 l 584 446 l 648 446 l 648 133 l 694 133 m 440 133 l 584 133 l 584 341 l 440 133 z "},"¿":{"ha":692,"x_min":0,"x_max":596,"o":"m 122 307 l 122 197 q 301 98 122 98 q 475 197 475 98 l 475 313 l 596 313 l 596 156 q 301 0 596 0 q 76 40 152 0 q 0 156 0 80 l 0 336 q 174 515 0 468 q 260 619 260 539 l 260 648 l 382 648 l 382 556 q 179 405 382 454 q 122 307 122 384 m 388 856 q 324 793 388 793 q 260 856 260 793 q 324 926 260 926 q 388 856 388 926 z "},"À":{"ha":852,"x_min":-9,"x_max":755,"o":"m -9 0 l 309 909 l 434 909 l 128 0 l -9 0 m 488 347 l 401 619 l 472 823 l 755 0 l 616 0 l 529 249 l 273 249 l 307 347 l 488 347 m 318 931 l 190 1041 l 335 1041 l 399 931 l 318 931 z "},"Á":{"ha":852,"x_min":-9,"x_max":755,"o":"m -9 0 l 309 909 l 434 909 l 128 0 l -9 0 m 488 347 l 401 619 l 472 823 l 755 0 l 616 0 l 529 249 l 273 249 l 307 347 l 488 347 m 421 929 l 352 929 l 416 1039 l 554 1039 l 421 929 z "},"Â":{"ha":852,"x_min":-9,"x_max":755,"o":"m -9 0 l 309 909 l 434 909 l 128 0 l -9 0 m 488 347 l 401 619 l 472 823 l 755 0 l 616 0 l 529 249 l 273 249 l 307 347 l 488 347 m 387 1116 l 583 995 l 531 914 l 375 1001 l 236 914 l 178 1001 l 369 1116 l 387 1116 z "},"Ã":{"ha":852,"x_min":-9,"x_max":755,"o":"m -9 0 l 309 909 l 434 909 l 128 0 l -9 0 m 488 347 l 401 619 l 472 823 l 755 0 l 616 0 l 529 249 l 273 249 l 307 347 l 488 347 m 393 1046 q 416 994 399 1009 q 462 982 429 981 q 526 1017 517 984 l 526 1028 l 601 1028 l 601 1017 q 451 924 589 923 q 335 982 347 925 q 271 1046 322 1045 q 202 1005 202 1047 l 202 988 l 115 988 l 115 999 q 271 1104 115 1105 q 393 1046 383 1102 z "},"Ä":{"ha":852,"x_min":-9,"x_max":755,"o":"m -9 0 l 309 909 l 434 909 l 128 0 l -9 0 m 488 347 l 401 619 l 472 823 l 755 0 l 616 0 l 529 249 l 273 249 l 307 347 l 488 347 m 220 992 q 278 1056 220 1056 q 342 992 342 1056 q 278 928 342 928 q 220 992 220 928 m 400 992 q 469 1056 400 1056 q 527 992 527 1056 q 469 928 527 928 q 400 992 400 928 z "},"Å":{"ha":852,"x_min":-9,"x_max":755,"o":"m -9 0 l 309 909 l 434 909 l 128 0 l -9 0 m 488 347 l 401 619 l 472 823 l 755 0 l 616 0 l 529 249 l 273 249 l 307 347 l 488 347 m 481 981 q 377 918 481 917 q 279 981 285 918 l 279 1063 q 377 1132 279 1132 q 481 1063 481 1132 l 481 981 m 429 1010 l 429 1045 q 377 1086 424 1088 q 331 1051 337 1089 l 331 1010 q 377 964 339 961 q 429 1010 429 958 z "},"Æ":{"ha":1075,"x_min":0,"x_max":984,"o":"m 243 174 l 150 0 l 0 0 l 486 903 l 984 903 l 984 804 l 613 804 l 613 492 l 909 492 l 909 394 l 613 394 l 613 104 l 984 104 l 984 0 l 486 0 l 486 174 l 243 174 m 486 272 l 486 648 l 289 272 l 486 272 z "},"Ç":{"ha":700,"x_min":-2,"x_max":594,"o":"m 594 282 l 594 149 q 299 -1 594 -1 q -2 144 -2 -1 l -2 763 q 299 913 -2 913 q 594 763 594 913 l 594 630 l 473 630 l 473 728 q 299 815 473 815 q 120 728 120 815 l 120 196 q 299 97 120 97 q 427 115 388 97 q 473 178 473 135 l 473 282 l 594 282 m 255 0 l 296 0 l 296 -46 q 336 -23 296 -23 q 394 -81 394 -23 l 394 -145 q 278 -203 394 -203 q 168 -145 168 -203 l 168 -116 l 215 -116 l 215 -127 q 278 -162 215 -162 q 342 -139 342 -162 l 342 -87 q 325 -58 342 -58 q 296 -87 296 -58 l 296 -104 l 255 -104 l 255 0 z "},"È":{"ha":602,"x_min":-4,"x_max":488,"o":"m 488 813 l 117 813 l 117 517 l 430 517 l 430 419 l 117 419 l 117 101 l 488 101 l 488 2 l -4 2 l -4 911 l 488 911 l 488 813 m 197 931 l 70 1041 l 215 1041 l 278 931 l 197 931 z "},"É":{"ha":613,"x_min":-1,"x_max":491,"o":"m 491 814 l 120 814 l 120 519 l 433 519 l 433 420 l 120 420 l 120 102 l 491 102 l 491 3 l -1 3 l -1 912 l 491 912 l 491 814 m 263 928 l 194 928 l 258 1038 l 396 1038 l 263 928 z "},"Ê":{"ha":619,"x_min":-4,"x_max":488,"o":"m 488 809 l 117 809 l 117 514 l 430 514 l 430 416 l 117 416 l 117 97 l 488 97 l 488 -1 l -4 -1 l -4 907 l 488 907 l 488 809 m 258 1118 l 454 997 l 402 916 l 246 1002 l 107 916 l 49 1002 l 240 1118 l 258 1118 z "},"Ë":{"ha":608,"x_min":1,"x_max":493,"o":"m 493 811 l 123 811 l 123 516 l 435 516 l 435 417 l 123 417 l 123 99 l 493 99 l 493 1 l 1 1 l 1 909 l 493 909 l 493 811 m 108 995 q 166 1059 108 1059 q 230 995 230 1059 q 166 932 230 932 q 108 995 108 932 m 288 995 q 357 1059 288 1059 q 415 995 415 1059 q 357 932 415 932 q 288 995 288 932 z "},"Ì":{"ha":288,"x_min":-27,"x_max":219,"o":"m 219 0 l -1 0 l -1 98 l 46 98 l 46 810 l -1 810 l -1 909 l 219 909 l 219 810 l 173 810 l 173 98 l 219 98 l 219 0 m 100 931 l -27 1041 l 117 1041 l 181 931 l 100 931 z "},"Í":{"ha":291,"x_min":-3,"x_max":266,"o":"m 216 0 l -3 0 l -3 98 l 43 98 l 43 810 l -3 810 l -3 909 l 216 909 l 216 810 l 170 810 l 170 98 l 216 98 l 216 0 m 133 925 l 64 925 l 127 1035 l 266 1035 l 133 925 z "},"Î":{"ha":468,"x_min":-29,"x_max":376,"o":"m 284 0 l 64 0 l 64 98 l 110 98 l 110 810 l 64 810 l 64 909 l 284 909 l 284 810 l 237 810 l 237 98 l 284 98 l 284 0 m 179 1097 l 376 976 l 324 895 l 168 981 l 29 895 l -29 981 l 162 1097 l 179 1097 z "},"Ï":{"ha":370,"x_min":5,"x_max":312,"o":"m 264 -2 l 45 -2 l 45 96 l 91 96 l 91 808 l 45 808 l 45 906 l 264 906 l 264 808 l 218 808 l 218 96 l 264 96 l 264 -2 m 5 992 q 63 1056 5 1056 q 127 992 127 1056 q 63 929 127 929 q 5 992 5 929 m 185 992 q 254 1056 185 1056 q 312 992 312 1056 q 254 929 312 929 q 185 992 185 929 z "},"Ð":{"ha":789,"x_min":0,"x_max":694,"o":"m 98 498 l 98 903 l 428 903 q 694 752 681 903 l 694 156 q 619 41 694 80 q 394 0 542 0 l 98 0 l 98 405 l 0 405 l 0 498 l 98 498 m 214 98 l 394 98 q 567 191 567 98 l 567 718 q 394 799 567 799 l 214 799 l 214 498 l 353 498 l 353 405 l 214 405 l 214 98 z "},"Ñ":{"ha":689,"x_min":2,"x_max":558,"o":"m 2 910 l 153 910 l 425 250 l 425 910 l 558 910 l 558 1 l 396 1 l 124 655 l 124 1 l 2 1 l 2 910 m 322 1045 q 345 992 328 1008 q 391 981 358 980 q 455 1016 446 983 l 455 1027 l 530 1027 l 530 1016 q 380 923 518 922 q 264 981 275 924 q 200 1045 251 1043 q 131 1004 131 1046 l 131 987 l 44 987 l 44 998 q 200 1102 44 1104 q 322 1045 312 1101 z "},"Ò":{"ha":662,"x_min":-3,"x_max":593,"o":"m 264 823 q 119 737 119 815 l 119 182 q 264 90 119 98 l 264 -9 q -3 130 -3 -1 l -3 778 q 264 928 -3 920 l 264 823 m 321 90 q 472 193 472 96 l 472 737 q 321 823 472 818 l 321 928 q 593 778 593 922 l 593 141 q 321 -9 593 -3 l 321 90 m 274 958 l 147 1068 l 292 1068 l 355 958 l 274 958 z "},"Ó":{"ha":662,"x_min":2,"x_max":598,"o":"m 270 818 q 124 731 124 810 l 124 176 q 270 84 124 93 l 270 -14 q 2 124 2 -7 l 2 772 q 270 922 2 914 l 270 818 m 326 84 q 477 188 477 90 l 477 731 q 326 818 477 813 l 326 922 q 598 772 598 917 l 598 135 q 326 -15 598 -9 l 326 84 m 322 947 l 253 947 l 317 1057 l 455 1057 l 322 947 z "},"Ô":{"ha":662,"x_min":-3,"x_max":593,"o":"m 264 823 q 119 737 119 815 l 119 181 q 264 90 119 98 l 264 -9 q -3 129 -3 -2 l -3 777 q 264 927 -3 919 l 264 823 m 321 89 q 472 193 472 95 l 472 737 q 321 823 472 818 l 321 928 q 593 777 593 922 l 593 141 q 321 -10 593 -4 l 321 89 m 313 1124 l 509 1002 l 457 921 l 301 1008 l 162 921 l 104 1008 l 295 1124 l 313 1124 z "},"Õ":{"ha":662,"x_min":-1,"x_max":595,"o":"m 267 818 q 121 732 121 810 l 121 177 q 267 85 121 93 l 267 -14 q -1 124 -1 -6 l -1 773 q 267 922 -1 914 l 267 818 m 323 84 q 474 188 474 91 l 474 732 q 323 818 474 813 l 323 923 q 595 773 595 917 l 595 136 q 323 -14 595 -9 l 323 84 m 339 1047 q 362 995 345 1010 q 409 983 376 982 q 472 1018 464 985 l 472 1030 l 547 1030 l 547 1018 q 397 925 535 924 q 281 983 293 926 q 218 1047 269 1046 q 148 1006 148 1049 l 148 989 l 61 989 l 61 1001 q 218 1105 61 1106 q 339 1047 329 1104 z "},"Ö":{"ha":662,"x_min":-1,"x_max":595,"o":"m 267 819 q 121 733 121 811 l 121 177 q 267 86 121 94 l 267 -13 q -1 125 -1 -6 l -1 773 q 267 923 -1 915 l 267 819 m 323 85 q 474 189 474 91 l 474 733 q 323 819 474 814 l 323 924 q 595 773 595 918 l 595 137 q 323 -14 595 -8 l 323 85 m 149 993 q 207 1057 149 1057 q 271 993 271 1057 q 207 929 271 929 q 149 993 149 929 m 329 993 q 398 1057 329 1057 q 456 993 456 1057 q 398 929 456 929 q 329 993 329 929 z "},"×":{"ha":542,"x_min":0,"x_max":451,"o":"m 0 289 l 156 451 l 0 602 l 64 677 l 220 515 l 376 671 l 440 613 l 284 457 l 451 289 l 376 226 l 220 382 l 58 226 l 0 289 z "},"Ø":{"ha":880,"x_min":0,"x_max":787,"o":"m 567 613 l 567 729 q 388 810 567 810 q 214 729 214 810 l 214 411 l 567 613 m 214 278 l 214 179 q 388 87 214 87 q 503 98 472 87 q 567 179 567 122 l 567 486 l 214 278 m 0 289 l 93 336 l 93 764 q 388 914 93 914 q 689 764 689 914 l 689 683 l 723 700 l 787 613 l 689 556 l 689 127 q 388 -12 689 -12 q 203 12 277 -12 q 93 127 93 46 l 93 208 l 58 191 l 0 289 z "},"Ù":{"ha":694,"x_min":0,"x_max":596,"o":"m 596 906 l 596 136 q 301 -14 596 -14 q 0 136 0 -14 l 0 906 l 127 906 l 127 177 q 174 107 127 129 q 301 90 208 90 q 469 177 469 89 l 469 906 l 596 906 m 309 930 l 182 1040 l 326 1040 l 390 930 l 309 930 z "},"Ú":{"ha":668,"x_min":-2,"x_max":594,"o":"m 594 910 l 594 141 q 299 -10 594 -10 q -2 141 -2 -10 l -2 910 l 125 910 l 125 181 q 171 112 125 134 q 299 94 206 95 q 466 181 466 93 l 466 910 l 594 910 m 318 927 l 248 927 l 312 1037 l 451 1037 l 318 927 z "},"Û":{"ha":668,"x_min":0,"x_max":596,"o":"m 596 906 l 596 137 q 301 -14 596 -14 q 0 137 0 -14 l 0 906 l 127 906 l 127 177 q 174 108 127 130 q 301 90 208 91 q 469 177 469 89 l 469 906 l 596 906 m 306 1120 l 502 999 l 450 918 l 294 1005 l 155 918 l 97 1005 l 288 1120 l 306 1120 z "},"Ü":{"ha":668,"x_min":-2,"x_max":594,"o":"m 594 906 l 594 136 q 299 -14 594 -14 q -2 136 -2 -14 l -2 906 l 125 906 l 125 177 q 171 107 125 129 q 299 90 206 90 q 466 177 466 89 l 466 906 l 594 906 m 123 992 q 181 1056 123 1056 q 244 992 244 1056 q 181 929 244 929 q 123 992 123 929 m 302 992 q 372 1056 302 1056 q 429 992 429 1056 q 372 929 429 929 q 302 992 302 929 z "},"Ý":{"ha":825,"x_min":-1,"x_max":763,"o":"m 763 899 l 451 320 l 451 -4 l 318 -4 l 318 320 l -1 899 l 144 899 l 381 453 l 619 899 l 763 899 m 391 925 l 322 925 l 385 1035 l 524 1035 l 391 925 z "},"Þ":{"ha":692,"x_min":0,"x_max":596,"o":"m 0 903 l 122 903 l 122 775 l 301 775 q 521 735 442 775 q 596 625 596 697 l 596 376 q 289 226 596 226 l 122 226 l 122 0 l 0 0 l 0 903 m 122 318 l 301 318 q 469 411 469 318 l 469 579 q 301 671 469 671 l 122 671 l 122 318 z "},"ß":{"ha":725,"x_min":0,"x_max":631,"o":"m 330 810 q 156 729 156 808 l 156 0 l 35 0 l 35 122 l 0 122 l 0 214 l 35 214 l 35 752 q 116 868 35 825 q 330 909 193 909 q 631 758 631 909 l 631 579 q 602 509 631 540 q 521 475 569 475 q 602 434 570 475 q 631 353 631 397 l 631 145 q 579 35 631 70 q 417 0 527 0 q 208 104 208 0 l 208 168 l 336 168 l 336 145 q 417 87 336 86 q 492 145 492 87 l 492 347 q 411 422 492 422 l 214 422 l 214 538 l 411 538 q 492 625 492 538 l 492 729 q 434 802 492 785 q 330 810 403 811 z "},"à":{"ha":624,"x_min":4,"x_max":560,"o":"m 220 542 q 131 476 131 529 l 131 424 l 4 424 l 4 516 q 220 648 4 634 l 220 542 m 220 267 q 126 192 126 259 l 126 157 q 220 94 126 98 l 220 -10 q 68 24 119 -6 q 4 128 4 62 l 4 209 q 67 325 4 284 q 220 365 123 361 l 220 267 m 261 95 q 380 204 380 104 l 380 314 q 261 268 327 271 l 261 366 q 374 429 374 369 l 374 481 q 264 545 374 548 l 261 545 l 261 649 l 264 649 q 496 487 496 653 l 496 76 q 560 1 496 36 l 427 1 q 380 71 380 19 q 341 13 380 37 q 261 -10 306 -8 l 261 95 m 232 682 l 105 792 l 249 792 l 313 682 l 232 682 z "},"á":{"ha":624,"x_min":-2,"x_max":554,"o":"m 214 542 q 126 476 126 529 l 126 424 l -2 424 l -2 516 q 214 648 -2 634 l 214 542 m 214 267 q 120 192 120 259 l 120 157 q 214 94 120 98 l 214 -10 q 62 24 113 -6 q -2 128 -2 62 l -2 209 q 61 325 -2 284 q 214 365 117 361 l 214 267 m 255 95 q 374 204 374 104 l 374 314 q 255 268 321 271 l 255 366 q 369 429 369 369 l 369 481 q 259 545 369 548 l 255 545 l 255 649 l 259 649 q 490 487 490 653 l 490 76 q 554 1 490 36 l 421 1 q 374 71 374 19 q 335 13 374 37 q 255 -10 300 -8 l 255 95 m 269 677 l 199 677 l 263 786 l 402 786 l 269 677 z "},"â":{"ha":624,"x_min":-4,"x_max":552,"o":"m 212 541 q 123 475 123 528 l 123 423 l -4 423 l -4 516 q 212 647 -4 633 l 212 541 m 212 266 q 117 192 117 259 l 117 157 q 212 94 117 98 l 212 -10 q 60 24 111 -7 q -4 128 -4 61 l -4 209 q 59 325 -4 284 q 212 365 115 361 l 212 266 m 253 94 q 372 203 372 104 l 372 313 q 253 267 319 271 l 253 365 q 366 429 366 369 l 366 481 q 256 545 366 547 l 253 545 l 253 649 l 256 649 q 488 487 488 653 l 488 76 q 552 1 488 35 l 418 1 q 372 70 372 18 q 333 13 372 36 q 253 -10 298 -8 l 253 94 m 252 847 l 448 726 l 396 645 l 240 731 l 101 645 l 43 731 l 234 847 l 252 847 z "},"ã":{"ha":624,"x_min":-1,"x_max":554,"o":"m 215 543 q 126 477 126 531 l 126 425 l -1 425 l -1 518 q 215 649 -1 635 l 215 543 m 215 269 q 120 194 120 261 l 120 159 q 215 96 120 100 l 215 -8 q 63 26 114 -5 q -1 130 -1 64 l -1 211 q 62 327 -1 286 q 215 367 117 363 l 215 269 m 256 97 q 375 205 375 106 l 375 315 q 256 270 322 273 l 256 367 q 369 431 369 371 l 369 483 q 259 547 369 550 l 256 547 l 256 651 l 259 651 q 491 489 491 655 l 491 78 q 554 3 491 38 l 421 3 q 375 72 375 20 q 336 15 375 39 q 256 -8 301 -6 l 256 97 m 293 774 q 317 722 300 738 q 363 711 330 709 q 427 745 418 712 l 427 757 l 502 757 l 502 745 q 351 653 490 652 q 236 711 247 653 q 172 774 223 773 q 102 734 102 776 l 102 716 l 16 716 l 16 728 q 172 832 16 834 q 293 774 284 831 z "},"ä":{"ha":624,"x_min":-7,"x_max":549,"o":"m 209 540 q 120 474 120 527 l 120 422 l -7 422 l -7 514 q 209 646 -7 632 l 209 540 m 209 265 q 115 190 115 258 l 115 156 q 209 93 115 97 l 209 -12 q 57 23 108 -8 q -7 127 -7 60 l -7 208 q 56 323 -7 282 q 209 363 112 359 l 209 265 m 250 93 q 369 202 369 102 l 369 312 q 250 266 316 270 l 250 364 q 363 428 363 367 l 363 480 q 253 543 363 546 l 250 543 l 250 648 l 253 648 q 485 486 485 652 l 485 75 q 549 -1 485 34 l 416 -1 q 369 69 369 17 q 330 12 369 35 q 250 -12 295 -9 l 250 93 m 94 744 q 152 808 94 808 q 215 744 215 808 q 152 681 215 681 q 94 744 94 681 m 273 744 q 343 808 273 808 q 400 744 400 808 q 343 681 400 681 q 273 744 273 681 z "},"å":{"ha":624,"x_min":2,"x_max":557,"o":"m 218 538 q 129 472 129 525 l 129 420 l 2 420 l 2 512 q 218 644 2 630 l 218 538 m 218 263 q 123 188 123 255 l 123 153 q 218 90 123 94 l 218 -14 q 65 20 117 -10 q 2 124 2 58 l 2 205 q 65 321 2 280 q 218 361 120 357 l 218 263 m 259 91 q 378 200 378 100 l 378 310 q 259 264 325 267 l 259 362 q 372 425 372 365 l 372 477 q 262 541 372 544 l 259 541 l 259 645 l 262 645 q 494 483 494 649 l 494 72 q 557 -3 494 32 l 424 -3 q 378 67 378 14 q 339 9 378 33 q 259 -14 304 -12 l 259 91 m 355 730 q 251 667 355 666 q 152 730 158 667 l 152 811 q 251 881 152 881 q 355 811 355 881 l 355 730 m 303 759 l 303 794 q 251 834 297 837 q 204 800 210 837 l 204 759 q 251 713 212 710 q 303 759 303 707 z "},"æ":{"ha":984,"x_min":0,"x_max":891,"o":"m 376 313 q 260 266 317 266 q 127 191 127 267 l 127 162 q 260 98 127 98 q 354 122 331 98 q 376 208 376 146 l 376 313 m 405 69 q 359 12 405 37 q 260 -12 317 -12 q 75 29 148 -12 q 0 139 0 71 l 0 208 q 260 365 0 351 q 376 428 376 371 l 376 480 q 266 561 376 561 q 174 532 216 561 q 139 475 139 509 l 139 422 l 0 422 l 0 515 q 75 619 0 576 q 266 666 156 666 q 382 648 321 666 q 440 613 440 631 q 509 648 440 631 q 642 666 578 666 q 828 619 757 666 q 891 509 891 578 l 891 272 l 498 272 l 498 156 q 642 93 498 93 q 764 179 764 93 l 764 214 l 885 214 l 885 145 q 822 29 885 71 q 642 -12 760 -12 q 480 12 552 -12 q 405 69 405 36 m 498 370 l 764 370 l 764 480 q 735 538 764 517 q 642 567 696 567 q 498 475 498 567 l 498 370 z "},"ç":{"ha":610,"x_min":-1,"x_max":543,"o":"m 543 208 l 543 145 q 480 29 543 67 q 277 -12 411 -13 q 75 29 147 -11 q -1 139 -1 70 l -1 492 q 70 608 -1 568 q 277 648 140 648 q 475 607 406 648 q 543 492 543 567 l 543 405 l 416 405 l 416 463 q 277 544 416 544 q 121 463 121 544 l 121 191 q 277 93 121 95 q 381 104 355 91 q 416 168 416 122 l 416 208 l 543 208 m 262 0 l 303 0 l 303 -46 q 343 -23 303 -23 q 401 -81 401 -23 l 401 -145 q 285 -203 401 -203 q 175 -145 175 -203 l 175 -116 l 222 -116 l 222 -127 q 285 -162 222 -162 q 349 -139 349 -162 l 349 -87 q 332 -58 349 -58 q 303 -87 303 -58 l 303 -104 l 262 -104 l 262 0 z "},"è":{"ha":596,"x_min":-3,"x_max":518,"o":"m 285 85 q 385 171 385 94 l 385 200 l 518 200 l 518 136 q 425 9 518 49 q 285 -20 367 -16 l 285 85 m 285 373 l 385 373 l 385 477 q 285 557 385 549 l 285 650 q 518 512 518 644 l 518 269 l 285 269 l 285 373 m 223 557 q 124 477 124 547 l 124 373 l 223 373 l 223 269 l 124 269 l 124 171 q 223 86 124 96 l 223 -20 q 90 9 144 -15 q -3 136 -3 50 l -3 512 q 95 628 -3 590 q 223 650 146 647 l 223 557 m 224 678 l 97 788 l 241 788 l 305 678 l 224 678 z "},"é":{"ha":590,"x_min":-1,"x_max":520,"o":"m 288 84 q 387 170 387 93 l 387 198 l 520 198 l 520 135 q 428 8 520 47 q 288 -21 370 -17 l 288 84 m 288 372 l 387 372 l 387 476 q 288 556 387 548 l 288 649 q 520 511 520 642 l 520 268 l 288 268 l 288 372 m 226 556 q 127 476 127 546 l 127 372 l 226 372 l 226 268 l 127 268 l 127 170 q 226 84 127 95 l 226 -21 q 92 8 146 -16 q -1 135 -1 49 l -1 511 q 98 627 -1 589 q 226 649 148 646 l 226 556 m 270 671 l 200 671 l 264 781 l 403 781 l 270 671 z "},"ê":{"ha":571,"x_min":-1,"x_max":520,"o":"m 288 89 q 387 174 387 97 l 387 203 l 520 203 l 520 139 q 428 12 520 52 q 288 -16 370 -13 l 288 89 m 288 377 l 387 377 l 387 481 q 288 561 387 553 l 288 654 q 520 516 520 647 l 520 273 l 288 273 l 288 377 m 226 560 q 127 481 127 551 l 127 377 l 226 377 l 226 273 l 127 273 l 127 174 q 226 89 127 100 l 226 -16 q 92 12 146 -12 q -1 139 -1 53 l -1 516 q 98 631 -1 594 q 226 654 148 650 l 226 560 m 273 850 l 470 729 l 418 648 l 262 734 l 123 648 l 65 734 l 256 850 l 273 850 z "},"ë":{"ha":571,"x_min":-1,"x_max":520,"o":"m 288 86 q 387 172 387 95 l 387 201 l 520 201 l 520 137 q 428 10 520 50 q 288 -19 370 -15 l 288 86 m 288 374 l 387 374 l 387 479 q 288 558 387 550 l 288 652 q 520 513 520 645 l 520 270 l 288 270 l 288 374 m 226 558 q 127 479 127 549 l 127 374 l 226 374 l 226 270 l 127 270 l 127 172 q 226 87 127 97 l 226 -19 q 92 10 146 -14 q -1 137 -1 51 l -1 513 q 98 629 -1 591 q 226 652 148 648 l 226 558 m 100 743 q 157 807 100 807 q 221 743 221 807 q 157 679 221 679 q 100 743 100 679 m 279 743 q 348 807 279 807 q 406 743 406 807 q 348 679 406 679 q 279 743 279 679 z "},"ì":{"ha":322,"x_min":0,"x_max":226,"o":"m 127 683 l 0 793 l 145 793 l 208 683 l 127 683 m 98 648 l 226 648 l 226 0 l 98 0 l 98 648 z "},"í":{"ha":291,"x_min":-1,"x_max":227,"o":"m -1 650 l 126 650 l 126 2 l -1 2 l -1 650 m 94 678 l 24 678 l 88 788 l 227 788 l 94 678 z "},"î":{"ha":503,"x_min":0,"x_max":411,"o":"m 208 862 l 411 741 l 353 666 l 203 747 l 64 666 l 0 747 l 197 862 l 208 862 m 139 648 l 266 648 l 266 0 l 139 0 l 139 648 z "},"ï":{"ha":406,"x_min":0,"x_max":313,"o":"m 0 758 q 64 828 0 828 q 122 758 122 828 q 64 694 122 694 q 0 758 0 694 m 191 758 q 249 828 191 828 q 313 758 313 828 q 249 694 313 694 q 191 758 191 694 m 93 648 l 220 648 l 220 0 l 93 0 l 93 648 z "},"ð":{"ha":744,"x_min":0,"x_max":648,"o":"m 486 451 q 307 556 486 556 q 174 527 224 556 q 122 451 122 497 l 122 174 q 307 93 122 94 q 486 174 486 91 l 486 451 m 336 723 l 417 775 q 203 804 357 804 l 87 804 l 87 909 l 203 909 q 515 833 421 909 l 613 891 l 648 839 l 561 787 q 613 590 613 711 l 613 145 q 307 -12 613 -12 q 81 29 163 -12 q 0 139 0 69 l 0 498 q 307 648 0 648 q 434 625 378 648 q 486 573 486 604 l 486 671 q 469 729 486 699 l 370 671 l 336 723 z "},"ñ":{"ha":616,"x_min":0,"x_max":556,"o":"m 0 3 l 0 652 l 122 652 l 122 571 q 200 642 122 616 q 318 657 243 657 q 556 519 556 660 l 556 3 l 428 3 l 428 466 q 278 571 428 572 q 122 438 122 569 l 122 3 l 0 3 m 302 797 q 325 745 308 760 q 372 733 339 732 q 435 768 427 735 l 435 780 l 510 780 l 510 768 q 360 675 498 674 q 244 733 256 676 q 181 797 231 796 q 111 756 111 799 l 111 739 l 24 739 l 24 751 q 181 855 24 856 q 302 797 292 854 z "},"ò":{"ha":604,"x_min":-1,"x_max":538,"o":"m 233 542 q 121 451 121 531 l 121 197 q 233 94 121 107 l 233 1 q -1 145 12 11 l -1 492 q 233 648 -1 638 l 233 542 m 285 93 q 416 197 416 97 l 416 451 q 285 544 416 539 l 285 648 q 469 608 403 645 q 538 492 538 567 l 538 145 q 285 0 538 3 l 285 93 m 250 681 l 123 791 l 267 791 l 331 681 l 250 681 z "},"ó":{"ha":604,"x_min":2,"x_max":541,"o":"m 236 545 q 124 454 124 534 l 124 199 q 236 97 124 109 l 236 3 q 2 147 14 13 l 2 494 q 236 650 2 640 l 236 545 m 288 95 q 419 199 419 100 l 419 454 q 288 546 419 542 l 288 650 q 472 610 406 648 q 541 494 541 569 l 541 147 q 288 2 541 6 l 288 95 m 320 678 l 251 678 l 314 788 l 453 788 l 320 678 z "},"ô":{"ha":604,"x_min":-1,"x_max":538,"o":"m 233 542 q 121 451 121 531 l 121 196 q 233 94 121 106 l 233 0 q -1 144 12 10 l -1 491 q 233 647 -1 637 l 233 542 m 285 92 q 416 196 416 97 l 416 451 q 285 543 416 539 l 285 648 q 469 607 403 645 q 538 491 538 567 l 538 144 q 285 -1 538 3 l 285 92 m 278 847 l 475 725 l 422 644 l 266 731 l 127 644 l 69 731 l 260 847 l 278 847 z "},"õ":{"ha":604,"x_min":2,"x_max":541,"o":"m 236 541 q 124 450 124 530 l 124 195 q 236 93 124 105 l 236 -1 q 2 143 14 9 l 2 490 q 236 646 2 636 l 236 541 m 288 91 q 419 195 419 95 l 419 450 q 288 542 419 538 l 288 646 q 472 606 406 644 q 541 490 541 565 l 541 143 q 288 -2 541 2 l 288 91 m 319 795 q 343 743 326 759 q 389 731 356 730 q 453 766 444 733 l 453 778 l 528 778 l 528 766 q 377 674 516 672 q 262 731 273 674 q 198 795 249 794 q 128 755 128 797 l 128 737 l 42 737 l 42 749 q 198 853 42 855 q 319 795 310 852 z "},"ö":{"ha":604,"x_min":-3,"x_max":535,"o":"m 231 539 q 119 448 119 528 l 119 194 q 231 91 119 104 l 231 -2 q -3 142 9 8 l -3 489 q 231 645 -3 635 l 231 539 m 282 90 q 414 194 414 94 l 414 448 q 282 541 414 536 l 282 645 q 466 605 401 642 q 535 489 535 564 l 535 142 q 282 -3 535 1 l 282 90 m 120 742 q 178 806 120 806 q 241 742 241 806 q 178 679 241 679 q 120 742 120 679 m 299 742 q 369 806 299 806 q 427 742 427 806 q 369 679 427 679 q 299 742 299 679 z "},"÷":{"ha":568,"x_min":0,"x_max":475,"o":"m 475 388 l 0 388 l 0 498 l 475 498 l 475 388 m 174 255 q 243 318 174 318 q 301 255 301 318 q 243 191 301 191 q 174 255 174 191 m 179 648 q 249 718 179 718 q 307 648 307 718 q 249 590 307 590 q 179 648 179 590 z "},"ø":{"ha":770,"x_min":0,"x_max":677,"o":"m 214 139 q 347 93 254 93 q 486 197 486 93 l 486 394 l 214 139 m 463 515 q 347 544 438 544 q 191 463 191 544 l 191 249 l 463 515 m 590 642 q 677 579 600 642 l 602 515 l 602 150 q 347 0 602 0 q 122 46 188 0 l 87 12 l 0 69 l 64 127 l 64 498 q 347 648 64 649 q 556 596 485 648 l 590 642 z "},"ù":{"ha":626,"x_min":-2,"x_max":554,"o":"m 554 645 l 554 -3 l 427 -3 l 427 90 q 374 20 427 46 q 230 -9 318 -8 q 62 32 125 -10 q -2 142 -2 73 l -2 645 l 120 645 l 120 194 q 270 90 120 90 q 427 217 427 90 l 427 645 l 554 645 m 255 678 l 128 788 l 273 788 l 336 678 l 255 678 z "},"ú":{"ha":626,"x_min":6,"x_max":562,"o":"m 562 649 l 562 1 l 435 1 l 435 94 q 383 24 435 50 q 238 -5 326 -4 q 70 36 133 -6 q 6 146 6 78 l 6 649 l 128 649 l 128 198 q 278 94 128 94 q 435 221 435 94 l 435 649 l 562 649 m 276 677 l 207 677 l 270 786 l 409 786 l 276 677 z "},"û":{"ha":626,"x_min":-2,"x_max":554,"o":"m 554 647 l 554 -1 l 427 -1 l 427 91 q 374 22 427 48 q 230 -7 318 -6 q 62 34 125 -8 q -2 144 -2 75 l -2 647 l 120 647 l 120 196 q 270 91 120 91 q 427 219 427 91 l 427 647 l 554 647 m 278 871 l 475 749 l 423 668 l 267 755 l 128 668 l 70 755 l 261 871 l 278 871 z "},"ü":{"ha":626,"x_min":-2,"x_max":554,"o":"m 554 649 l 554 1 l 427 1 l 427 94 q 374 24 427 50 q 230 -5 318 -4 q 62 36 125 -6 q -2 146 -2 78 l -2 649 l 120 649 l 120 198 q 270 94 120 94 q 427 221 427 94 l 427 649 l 554 649 m 123 746 q 181 810 123 810 q 245 746 245 810 q 181 682 245 682 q 123 746 123 682 m 303 746 q 372 810 303 810 q 430 746 430 810 q 372 682 430 682 q 303 746 303 682 z "},"ý":{"ha":704,"x_min":0,"x_max":631,"o":"m 631 649 l 359 -109 q 231 -219 339 -203 l 104 -219 l 104 -121 l 179 -121 q 243 -80 230 -121 l 266 1 l 0 649 l 150 649 l 336 151 l 480 649 l 631 649 m 321 676 l 251 676 l 315 786 l 454 786 l 321 676 z "},"þ":{"ha":660,"x_min":0,"x_max":567,"o":"m 0 897 l 127 897 l 127 556 q 307 654 127 654 q 470 627 400 654 q 567 509 567 589 l 567 156 q 499 41 567 82 q 307 0 430 0 q 180 23 233 0 q 127 81 127 46 l 127 -214 l 0 -214 l 0 897 m 127 231 q 168 127 127 161 q 307 98 203 98 q 440 191 440 98 l 440 463 q 405 527 440 505 q 307 556 359 556 q 127 463 147 556 l 127 231 z "},"ÿ":{"ha":704,"x_min":2,"x_max":633,"o":"m 633 647 l 361 -111 q 233 -221 341 -204 l 106 -221 l 106 -123 l 181 -123 q 245 -82 231 -123 l 268 -1 l 2 647 l 152 647 l 337 149 l 482 647 l 633 647 m 152 744 q 210 807 152 807 q 274 744 274 807 q 210 680 274 680 q 152 744 152 680 m 332 744 q 401 807 332 807 q 459 744 459 807 q 401 680 459 680 q 332 744 332 680 z "},"ı":{"ha":224,"x_min":0,"x_max":127,"o":"m 0 648 l 127 648 l 127 0 l 0 0 l 0 648 z "},"Ł":{"ha":744,"x_min":0,"x_max":648,"o":"m 0 451 l 156 521 l 156 903 l 278 903 l 278 584 l 422 654 l 475 590 l 278 492 l 278 98 l 648 98 l 648 0 l 156 0 l 156 428 l 46 376 l 0 451 z "},"ł":{"ha":568,"x_min":0,"x_max":475,"o":"m 0 434 l 156 515 l 156 932 l 278 932 l 278 573 l 422 642 l 475 579 l 278 480 l 278 0 l 156 0 l 156 422 l 46 365 l 0 434 z "},"Œ":{"ha":1063,"x_min":0,"x_max":966,"o":"m 469 191 l 469 729 q 423 787 469 763 q 301 810 377 810 q 122 729 122 810 l 122 191 q 174 110 122 140 q 301 87 214 87 q 422 116 379 87 q 469 191 469 146 m 475 897 l 475 903 l 966 903 l 966 804 l 596 804 l 596 492 l 897 492 l 897 394 l 596 394 l 596 98 l 966 98 l 966 0 l 469 0 l 469 6 q 301 -12 409 -12 q 0 127 0 -12 l 0 764 q 301 914 0 914 q 475 897 421 914 z "},"œ":{"ha":1024,"x_min":0,"x_max":926,"o":"m 422 197 l 422 451 q 278 544 422 544 q 122 451 122 544 l 122 197 q 168 110 122 144 q 278 81 207 81 q 382 110 347 81 q 422 197 422 144 m 480 602 q 544 637 480 623 q 677 648 598 648 q 856 608 791 648 q 926 498 926 565 l 926 266 l 538 266 l 538 150 q 590 93 538 106 q 677 87 612 87 q 770 93 755 87 q 804 150 804 106 l 804 203 l 926 203 l 926 139 q 856 23 926 68 q 677 -17 793 -17 q 538 -6 590 -17 q 469 35 469 10 q 405 -6 469 6 q 278 -12 373 -12 q 75 29 144 -11 q 0 145 0 72 l 0 498 q 278 648 0 648 q 411 637 355 648 q 480 602 480 622 m 538 365 l 804 365 l 804 475 q 770 532 804 511 q 677 556 732 556 q 578 532 618 556 q 538 475 538 509 l 538 365 z "},"Š":{"ha":698,"x_min":0,"x_max":602,"o":"m 122 648 q 301 527 122 565 q 481 478 429 499 q 602 359 602 431 l 602 127 q 301 -12 602 -13 q 0 174 0 -10 l 0 278 l 122 278 l 122 168 q 301 87 122 85 q 475 168 475 89 l 475 301 q 301 417 475 375 q 0 619 0 488 l 0 764 q 75 880 0 840 q 301 926 163 926 q 527 880 437 926 q 602 764 602 841 l 602 613 l 480 613 l 480 735 q 301 822 480 822 q 122 735 122 822 l 122 648 m 321 935 l 280 935 l 124 1091 l 228 1091 l 297 993 l 373 1091 l 477 1091 l 321 935 z "},"š":{"ha":640,"x_min":0,"x_max":544,"o":"m 122 434 q 278 376 130 383 q 544 260 544 365 l 544 139 q 480 23 544 60 q 278 -12 417 -13 q 75 41 148 -10 q 0 179 0 93 l 0 220 l 122 220 l 122 174 q 278 93 122 93 q 422 168 422 93 l 422 203 q 278 266 422 259 q 0 405 0 279 l 0 492 q 75 608 0 565 q 278 648 148 649 q 544 492 544 647 l 544 422 l 422 422 l 422 457 q 278 544 422 543 q 122 463 122 546 l 122 434 m 297 660 l 256 660 l 100 816 l 204 816 l 274 718 l 349 816 l 453 816 l 297 660 z "},"Ÿ":{"ha":855,"x_min":0,"x_max":764,"o":"m 764 903 l 451 324 l 451 0 l 318 0 l 318 324 l 0 903 l 145 903 l 382 457 l 619 903 l 764 903 m 225 995 q 283 1058 225 1058 q 347 995 347 1058 q 283 931 347 931 q 225 995 225 931 m 405 995 q 474 1058 405 1058 q 532 995 532 1058 q 474 931 532 931 q 405 995 405 931 z "},"Ž":{"ha":640,"x_min":0,"x_max":544,"o":"m 544 810 q 127 104 473 692 l 544 104 l 544 0 l 0 0 l 0 104 l 417 810 l 0 810 l 0 909 l 544 909 l 544 810 m 296 935 l 255 935 l 99 1091 l 203 1091 l 273 993 l 348 1091 l 452 1091 l 296 935 z "},"ž":{"ha":594,"x_min":0,"x_max":498,"o":"m 498 556 l 150 98 l 498 98 l 498 0 l 0 0 l 0 98 l 359 556 l 0 556 l 0 648 l 498 648 l 498 556 m 271 660 l 231 660 l 75 816 l 179 816 l 248 718 l 323 816 l 428 816 l 271 660 z "},"ƒ":{"ha":575,"x_min":0,"x_max":480,"o":"m 249 -35 q 133 -139 234 -139 q 93 -139 93 -139 l 0 -116 l 23 -41 q 46 -41 23 -41 q 122 12 103 -41 l 203 561 l 127 561 l 127 654 l 220 654 l 255 862 q 370 932 273 932 q 388 932 388 932 l 480 926 l 463 839 q 370 793 388 841 l 347 654 l 451 654 l 451 561 l 330 561 l 249 -35 z "},"ˆ":{"ha":497,"x_min":0,"x_max":405,"o":"m 208 897 l 405 775 l 353 694 l 197 781 l 58 694 l 0 781 l 191 897 l 208 897 z "},"ˇ":{"ha":445,"x_min":0,"x_max":353,"o":"m 197 735 l 156 735 l 0 891 l 104 891 l 174 793 l 249 891 l 353 891 l 197 735 z "},"˚":{"ha":296,"x_min":0,"x_max":203,"o":"m 203 758 q 98 694 203 693 q 0 758 6 695 l 0 839 q 98 909 0 909 q 203 839 203 909 l 203 758 m 150 787 l 150 822 q 98 862 145 865 q 52 828 58 865 l 52 787 q 98 741 60 738 q 150 787 150 735 z "},"˜":{"ha":582,"x_min":0,"x_max":486,"o":"m 278 822 q 301 770 284 785 q 347 758 314 757 q 411 793 402 760 l 411 804 l 486 804 l 486 793 q 336 700 474 699 q 220 758 231 701 q 156 822 207 821 q 87 781 87 823 l 87 764 l 0 764 l 0 775 q 156 880 0 881 q 278 822 268 878 z "},"Δ":{"ha":289,"x_min":0,"x_max":0,"o":""},"∆":{"ha":289,"x_min":0,"x_max":0,"o":""},"Ω":{"ha":289,"x_min":0,"x_max":0,"o":""},"Ω":{"ha":289,"x_min":0,"x_max":0,"o":""},"µ":{"ha":835,"x_min":0,"x_max":741,"o":"m 538 93 q 318 0 491 -2 q 116 98 142 2 l 116 -214 l 0 -220 l 0 666 l 122 666 l 122 226 q 278 98 122 100 q 428 203 416 98 l 428 666 l 556 666 l 556 168 q 666 98 577 97 q 735 208 722 100 l 741 226 l 741 58 q 677 0 707 2 q 538 93 543 -7 z "},"μ":{"ha":835,"x_min":0,"x_max":741,"o":"m 538 93 q 318 0 491 -2 q 116 98 142 2 l 116 -214 l 0 -220 l 0 666 l 122 666 l 122 226 q 278 98 122 100 q 428 203 416 98 l 428 666 l 556 666 l 556 168 q 666 98 577 97 q 735 208 722 100 l 741 226 l 741 58 q 677 0 707 2 q 538 93 543 -7 z "},"π":{"ha":289,"x_min":0,"x_max":0,"o":""},"–":{"ha":634,"x_min":0,"x_max":538,"o":"m 538 388 l 0 388 l 0 498 l 538 498 l 538 388 z "},"—":{"ha":900,"x_min":0,"x_max":804,"o":"m 804 388 l 0 388 l 0 498 l 804 498 l 804 388 z "},"‘":{"ha":218,"x_min":-3,"x_max":122,"o":"m 122 781 q 64 718 122 718 q 0 781 2 718 q 122 932 -3 911 l 122 914 q 64 845 67 904 q 122 781 122 845 z "},"’":{"ha":218,"x_min":0,"x_max":124,"o":"m 0 839 q 58 903 0 903 q 122 839 120 903 q 0 689 124 709 l 0 700 q 58 775 53 710 q 0 839 0 775 z "},"‚":{"ha":218,"x_min":-3,"x_max":122,"o":"m 122 775 q 58 706 122 706 q 0 775 2 706 q 122 926 -3 906 l 122 909 q 58 839 61 897 q 122 775 122 839 z "},"“":{"ha":380,"x_min":-3,"x_max":284,"o":"m 284 781 q 226 718 284 718 q 162 781 164 718 q 284 932 158 912 l 284 914 q 226 845 228 904 q 284 781 284 845 m 122 781 q 64 718 122 718 q 0 781 2 718 q 122 932 -3 911 l 122 914 q 64 839 67 904 q 122 781 122 839 z "},"”":{"ha":374,"x_min":0,"x_max":281,"o":"m 156 839 q 220 897 156 897 q 278 839 276 897 q 162 689 281 708 l 162 700 q 220 775 217 710 q 156 839 156 775 m 0 839 q 58 903 0 903 q 122 839 120 903 q 0 689 126 708 l 0 700 q 58 775 55 711 q 0 839 0 775 z "},"„":{"ha":218,"x_min":0,"x_max":124,"o":"m 0 839 q 58 903 0 903 q 122 839 120 903 q 0 689 124 708 l 0 700 q 58 775 54 711 q 0 839 0 775 z "},"†":{"ha":634,"x_min":0,"x_max":538,"o":"m 208 81 l 208 573 l 0 573 l 0 642 l 208 642 l 168 775 l 168 897 l 365 897 l 365 775 l 324 642 l 538 642 l 538 573 l 324 573 l 324 81 l 266 -220 l 208 81 z "},"‡":{"ha":640,"x_min":0,"x_max":544,"o":"m 214 573 l 6 573 l 6 642 l 214 642 l 174 775 l 174 897 l 370 897 l 370 775 l 330 642 l 544 642 l 544 573 l 330 573 l 330 110 l 538 110 l 538 35 l 330 35 l 370 -93 l 370 -214 l 179 -214 l 179 -93 l 214 35 l 0 35 l 0 110 l 214 110 l 214 573 z "},"•":{"ha":302,"x_min":0,"x_max":208,"o":"m 0 451 q 104 556 0 556 q 208 451 208 556 q 104 336 208 336 q 0 451 0 336 z "},"…":{"ha":711,"x_min":0,"x_max":616,"o":"m 0 64 q 58 122 0 122 q 116 64 116 122 q 58 0 116 0 q 0 64 0 0 m 250 64 q 308 122 250 122 q 366 64 366 122 q 308 0 366 0 q 250 64 250 0 m 501 64 q 558 122 501 122 q 616 64 616 122 q 558 0 616 0 q 501 64 501 0 z "},"‰":{"ha":1303,"x_min":0,"x_max":1209,"o":"m 365 567 q 191 463 365 462 q 0 567 9 465 l 0 799 q 191 903 0 904 q 365 799 365 902 l 365 567 m 278 596 l 278 775 q 191 839 269 844 q 168 839 191 839 q 87 781 95 839 l 87 596 q 191 532 98 530 q 278 596 270 527 m 1209 93 q 1036 -6 1209 -7 q 845 93 854 -4 l 845 330 q 1036 428 845 429 q 1209 324 1209 427 l 1209 93 m 1128 122 l 1128 301 q 1042 359 1120 363 q 1024 359 1042 359 q 932 301 941 359 l 932 122 q 1042 52 943 55 q 1128 122 1120 50 m 683 903 l 787 903 l 139 0 l 17 0 l 683 903 m 793 93 q 619 -6 793 -7 q 428 93 437 -4 l 428 330 q 619 428 428 429 q 793 324 793 427 l 793 93 m 706 122 l 718 301 q 619 359 709 364 q 602 359 619 359 q 515 301 524 359 l 515 122 q 619 52 526 54 q 706 122 704 50 z "},"‹":{"ha":302,"x_min":0,"x_max":208,"o":"m 208 289 l 0 428 l 0 480 l 208 613 l 208 509 l 104 451 l 208 388 l 208 289 z "},"›":{"ha":308,"x_min":0,"x_max":214,"o":"m 0 289 l 0 388 l 104 451 l 0 509 l 0 613 l 214 480 l 214 428 l 0 289 z "},"⁄":{"ha":822,"x_min":0,"x_max":729,"o":"m 729 926 l 116 -35 l 0 -35 l 619 926 l 729 926 z "},"™":{"ha":770,"x_min":0,"x_max":677,"o":"m 168 492 l 110 492 l 110 856 l 0 856 l 0 903 l 278 903 l 278 856 l 168 856 l 168 492 m 677 903 l 671 492 l 619 492 l 619 775 l 521 492 l 457 492 l 359 781 l 359 492 l 301 492 l 301 903 l 376 903 l 486 579 l 590 903 l 677 903 z "},"∂":{"ha":289,"x_min":0,"x_max":0,"o":""},"∏":{"ha":289,"x_min":0,"x_max":0,"o":""},"∑":{"ha":289,"x_min":0,"x_max":0,"o":""},"­":{"ha":289,"x_min":0,"x_max":0,"o":""},"−":{"ha":289,"x_min":0,"x_max":0,"o":""},"·":{"ha":211,"x_min":0,"x_max":116,"o":"m 0 405 q 58 469 0 469 q 116 405 116 469 q 58 336 116 336 q 0 405 0 336 z "},"∙":{"ha":211,"x_min":0,"x_max":116,"o":"m 0 405 q 58 469 0 469 q 116 405 116 469 q 58 336 116 336 q 0 405 0 336 z "},"√":{"ha":289,"x_min":0,"x_max":0,"o":""},"∞":{"ha":289,"x_min":0,"x_max":0,"o":""},"∫":{"ha":289,"x_min":0,"x_max":0,"o":""},"≈":{"ha":289,"x_min":0,"x_max":0,"o":""},"⋲":{"ha":289,"x_min":0,"x_max":0,"o":""},"≠":{"ha":289,"x_min":0,"x_max":0,"o":""},"≤":{"ha":289,"x_min":0,"x_max":0,"o":""},"≥":{"ha":289,"x_min":0,"x_max":0,"o":""},"◊":{"ha":289,"x_min":0,"x_max":0,"o":""},"":{"ha":289,"x_min":0,"x_max":0,"o":""},"":{"ha":289,"x_min":0,"x_max":0,"o":""},"":{"ha":289,"x_min":0,"x_max":0,"o":""}}}
